<?xml version="1.0" standalone="no"?>
<!DOCTYPE svg PUBLIC "-//W3C//DTD SVG 20010904//EN"
 "http://www.w3.org/TR/2001/REC-SVG-20010904/DTD/svg10.dtd">
<svg version="1.0" xmlns="http://www.w3.org/2000/svg"
 width="512.000000pt" height="512.000000pt" viewBox="0 0 512.000000 512.000000"
 preserveAspectRatio="xMidYMid meet">

<g transform="translate(0.000000,512.000000) scale(0.100000,-0.100000)"
fill="#000000" stroke="none">
<path d="M1865 3739 c-504 -39 -910 -214 -1226 -529 -282 -281 -413 -576 -412
-930 1 -387 179 -743 466 -933 54 -36 227 -122 231 -115 1 2 10 30 20 63 62
206 232 382 451 466 138 54 248 72 435 72 194 0 295 -13 681 -88 432 -85 644
-106 849 -86 935 95 1602 895 1529 1836 -6 83 -13 152 -15 154 -2 2 -57 -21
-121 -52 -216 -102 -386 -138 -658 -138 -259 0 -414 22 -845 118 -698 156
-1007 192 -1385 162z m2740 -584 c14 -13 25 -36 25 -50 0 -14 -11 -37 -25 -50
-13 -14 -36 -25 -50 -25 -14 0 -37 11 -50 25 -14 13 -25 36 -25 50 0 14 11 37
25 50 13 14 36 25 50 25 14 0 37 -11 50 -25z m-1717 -87 c8 -8 12 -47 12 -109
l0 -98 35 15 c74 31 166 9 209 -49 20 -27 21 -40 18 -205 -2 -151 -6 -181 -21
-201 -22 -31 -62 -42 -93 -27 -23 12 -23 13 -23 189 0 196 -2 202 -60 191 -66
-13 -75 -26 -76 -117 0 -45 -4 -122 -7 -170 -6 -77 -10 -92 -31 -108 -29 -24
-62 -24 -90 -1 l-22 17 13 319 c10 286 14 320 31 342 21 27 83 34 105 12z
m-212 -53 c14 -9 30 -27 36 -41 10 -20 8 -29 -9 -52 -24 -33 -69 -40 -112 -18
-38 20 -81 20 -127 1 -53 -22 -66 -63 -71 -240 -5 -143 -4 -151 17 -177 18
-24 29 -28 73 -28 38 0 63 7 92 25 47 29 81 31 107 8 60 -54 -56 -149 -197
-160 -113 -9 -189 29 -220 112 -15 37 -17 72 -13 217 4 154 7 179 27 226 26
57 75 106 130 130 78 32 216 31 267 -3z m-485 -26 c19 -19 21 -29 15 -98 -3
-42 -8 -173 -12 -291 -3 -118 -10 -230 -16 -248 -11 -38 -34 -52 -83 -52 -41
0 -41 0 -175 239 l-85 151 -6 -97 c-4 -54 -7 -137 -8 -185 -1 -76 -4 -90 -24
-114 -28 -32 -78 -37 -104 -11 -16 15 -16 43 -6 327 12 337 15 351 69 364 57
15 74 -4 187 -207 94 -169 107 -188 108 -157 0 19 4 106 7 193 7 158 7 159 35
183 35 30 70 31 98 3z m2300 0 c15 -15 19 -28 14 -46 -3 -14 -52 -86 -109
-161 -56 -76 -106 -143 -110 -151 -7 -11 5 -12 77 -6 100 8 127 -1 127 -43 0
-64 -30 -74 -261 -88 -114 -7 -116 -6 -133 17 -9 13 -16 29 -16 36 0 7 54 84
119 171 l119 159 -89 -5 c-99 -5 -119 3 -119 48 0 50 28 63 168 76 185 17 189
17 213 -7z m-510 -29 c103 -29 128 -176 44 -256 -37 -35 -99 -54 -174 -54 -47
0 -51 -2 -51 -24 0 -56 60 -71 139 -36 55 25 83 25 106 0 61 -68 -117 -160
-254 -132 -106 22 -135 75 -126 231 7 122 23 176 65 216 55 52 169 78 251 55z
m-2387 -22 l25 -23 -13 -305 c-7 -189 -17 -313 -24 -326 -14 -27 -60 -44 -87
-34 -45 17 -45 19 -32 349 l13 313 27 24 c35 30 59 30 91 2z m-174 -18 c11
-11 20 -24 20 -28 0 -5 -40 -148 -90 -317 -60 -207 -97 -316 -111 -331 -37
-40 -106 -37 -128 4 -14 27 -71 297 -71 339 0 18 -4 33 -10 33 -5 0 -10 -10
-10 -23 0 -25 -73 -304 -92 -350 -6 -15 -20 -34 -32 -42 -29 -21 -89 -19 -110
4 -10 11 -41 130 -84 321 l-67 302 28 24 c31 26 88 32 105 11 15 -17 82 -316
82 -362 0 -48 16 -37 24 17 4 23 27 112 51 198 32 109 51 160 66 173 25 20 92
23 108 3 13 -16 69 -260 80 -351 7 -53 8 -57 15 -30 57 229 108 392 127 408
28 23 74 22 99 -3z m2139 -8 c55 -28 76 -64 76 -132 -1 -44 -6 -67 -21 -87
-34 -45 -97 -74 -177 -82 -80 -7 -95 -23 -57 -61 18 -18 29 -21 62 -16 22 4
53 13 69 21 46 24 87 19 101 -11 10 -21 9 -31 -3 -52 -36 -64 -234 -100 -309
-56 -61 35 -72 67 -71 206 2 133 15 182 64 227 59 54 200 77 266 43z m-25
-779 c-73 -143 -248 -222 -465 -209 -113 7 -201 23 -434 77 -315 74 -680 117
-905 105 -125 -6 -254 -24 -363 -50 -73 -17 -63 -7 28 29 191 75 327 99 575
99 204 0 376 -18 680 -69 239 -40 326 -47 442 -35 191 19 339 74 419 156 l44
45 3 -47 c2 -35 -3 -60 -24 -101z"/>
<path d="M4512 3148 c-17 -17 -15 -73 3 -88 8 -7 26 -12 40 -12 36 0 55 20 55
56 0 40 -16 56 -55 56 -17 0 -36 -5 -43 -12z m54 -4 c17 -5 21 -13 20 -45 -1
-45 -7 -48 -29 -16 l-16 22 0 -22 c-1 -40 -21 -25 -21 15 0 51 6 57 46 46z"/>
<path d="M4540 3120 c0 -5 7 -10 15 -10 8 0 15 5 15 10 0 6 -7 10 -15 10 -8 0
-15 -4 -15 -10z"/>
<path d="M3836 2839 c-19 -15 -26 -30 -26 -55 0 -32 2 -34 34 -34 51 0 85 16
92 44 15 60 -46 87 -100 45z"/>
<path d="M3395 2795 c-16 -15 -25 -35 -25 -56 l0 -32 53 6 c55 7 77 25 77 62
0 49 -64 62 -105 20z"/>
</g>
</svg>
